<svg xmlns="http://www.w3.org/2000/svg" viewBox="0 0 1200 675" role="img" aria-labelledby="t d">
  <title id="t">AI-kaamerad aitavad USA lääneosa metsapõlenguid varem märgata</title>
  <desc id="d">Suitsu tuvastavad AI-kaamerad metsapõlengu eel</desc>
  <defs>
    <linearGradient id="sky" x1="0" y1="0" x2="0" y2="1">
      <stop offset="0%" stop-color="#08111f"/>
      <stop offset="55%" stop-color="#143e63"/>
      <stop offset="100%" stop-color="#1f7a6d"/>
    </linearGradient>
    <linearGradient id="smoke" x1="0" y1="0" x2="1" y2="1">
      <stop offset="0%" stop-color="#f8fafc" stop-opacity="0.95"/>
      <stop offset="100%" stop-color="#94a3b8" stop-opacity="0.35"/>
    </linearGradient>
    <linearGradient id="fire" x1="0" y1="0" x2="0" y2="1">
      <stop offset="0%" stop-color="#fde68a"/>
      <stop offset="45%" stop-color="#fb923c"/>
      <stop offset="100%" stop-color="#ef4444"/>
    </linearGradient>
  </defs>
  <rect width="1200" height="675" rx="36" fill="url(#sky)"/>
  <g opacity="0.18" stroke="#fff" stroke-width="2">
    <path d="M72 100H1128M72 180H1128M72 260H1128M72 340H1128M72 420H1128M72 500H1128M72 580H1128"/>
    <path d="M120 60V620M240 60V620M360 60V620M480 60V620M600 60V620M720 60V620M840 60V620M960 60V620M1080 60V620"/>
  </g>
  <path d="M0 556C94 526 198 510 304 510c95 0 179 16 268 16 104 0 180-28 274-28 98 0 184 17 354 68v109H0Z" fill="#0b1220"/>
  <path d="M0 602c96-26 192-46 288-46 69 0 145 12 219 12 99 0 175-20 254-20 117 0 220 18 439 74v53H0Z" fill="#09111c" opacity="0.95"/>
  <g transform="translate(92 114)">
    <rect x="0" y="0" width="280" height="432" rx="28" fill="#0a0f19" opacity="0.9"/>
    <rect x="30" y="34" width="220" height="64" rx="16" fill="#111827"/>
    <circle cx="66" cy="66" r="10" fill="#22c55e"/>
    <circle cx="100" cy="66" r="10" fill="#f59e0b"/>
    <circle cx="134" cy="66" r="10" fill="#ef4444"/>
    <rect x="30" y="120" width="220" height="250" rx="18" fill="#0f172a"/>
    <path d="M50 320c20-36 38-54 62-67 20-10 42-18 55-35 12-14 17-31 31-45 17-17 38-23 55-25v172H50Z" fill="#13293d"/>
    <path d="M74 291c20-28 39-43 64-57 19-10 37-21 50-39 10-14 17-29 26-43 10-16 24-28 36-33v160H74Z" fill="#173a56" opacity="0.95"/>
    <circle cx="193" cy="186" r="18" fill="#60a5fa" opacity="0.7"/>
    <path d="M66 386h148" stroke="#475569" stroke-width="10" stroke-linecap="round"/>
  </g>
  <g transform="translate(474 112)">
    <path d="M150 0c42 0 79 17 107 45 28 29 46 67 46 109 0 41-17 79-45 108-28 29-66 48-108 48-41 0-78-17-106-45-28-28-45-66-45-108 0-42 17-80 45-109C71 17 108 0 150 0Z" fill="#fff" opacity="0.06"/>
    <path d="M185 46c34 23 54 58 54 97 0 69-57 126-128 126-38 0-72-16-95-42 33 10 65 8 94-6 44-21 74-62 82-119 0-18-3-38-7-56z" fill="url(#smoke)"/>
    <path d="M130 66c25 17 36 46 36 78 0 52-25 96-68 123-24 16-49 22-76 22 13-18 29-31 45-43 31-22 55-50 63-91 5-27 3-55 0-89z" fill="#e2e8f0" opacity="0.55"/>
    <path d="M164 74l36 28-28 12 31 33-49-16 18 35-53-54 36-6-20-32z" fill="#fbbf24"/>
  </g>
  <g transform="translate(742 148)">
    <rect x="0" y="0" width="360" height="184" rx="24" fill="#07111f" opacity="0.82"/>
    <path d="M38 130h284" stroke="#94a3b8" stroke-width="4" stroke-linecap="round" opacity="0.5"/>
    <path d="M58 128V76h52v52H58zm78 0V56h52v72h-52zm78 0V96h52v32h-52zm78 0V38h52v90h-52z" fill="#60a5fa" opacity="0.9"/>
    <path d="M58 76l26-30 26 30" fill="none" stroke="#f8fafc" stroke-width="6" stroke-linecap="round" stroke-linejoin="round"/>
    <path d="M136 56l26-28 26 28" fill="none" stroke="#f8fafc" stroke-width="6" stroke-linecap="round" stroke-linejoin="round"/>
    <path d="M214 96l26-20 26 20" fill="none" stroke="#f8fafc" stroke-width="6" stroke-linecap="round" stroke-linejoin="round"/>
    <path d="M292 38l26-18 26 18" fill="none" stroke="#f8fafc" stroke-width="6" stroke-linecap="round" stroke-linejoin="round"/>
  </g>
  <g transform="translate(776 384)">
    <rect x="0" y="0" width="268" height="116" rx="58" fill="#0b1220" opacity="0.76"/>
    <path d="M72 84c-20-14-32-35-32-57 22 3 41 11 56 24 15-13 34-21 56-24 0 22-11 43-31 57-17 12-36 19-53 19-7 0-12-1-16-3z" fill="#22c55e"/>
    <path d="M186 22l16 30h-14l12 34-34-46h20l-10-18z" fill="url(#fire)"/>
  </g>
  <text x="86" y="620" font-family="system-ui, -apple-system, Segoe UI, sans-serif" font-size="28" fill="#e2e8f0" opacity="0.95">Suitsu märgib masin. Tuld peatab inimene.</text>
</svg>
