<svg xmlns="http://www.w3.org/2000/svg" viewBox="0 0 1024 647" role="img" aria-label="Puhta energia kiirendus">
  <defs>
    <linearGradient id="sky" x1="0" y1="0" x2="1" y2="1">
      <stop offset="0%" stop-color="#0f172a"/>
      <stop offset="55%" stop-color="#1d4ed8"/>
      <stop offset="100%" stop-color="#f59e0b"/>
    </linearGradient>
    <linearGradient id="panel" x1="0" y1="0" x2="0" y2="1">
      <stop offset="0%" stop-color="#0ea5e9"/>
      <stop offset="100%" stop-color="#0f172a"/>
    </linearGradient>
    <linearGradient id="wind" x1="0" y1="0" x2="1" y2="1">
      <stop offset="0%" stop-color="#e2e8f0"/>
      <stop offset="100%" stop-color="#94a3b8"/>
    </linearGradient>
  </defs>
  <rect width="1024" height="647" fill="url(#sky)"/>
  <circle cx="820" cy="145" r="92" fill="#fde047" opacity="0.95"/>
  <circle cx="820" cy="145" r="140" fill="#fde047" opacity="0.12"/>
  <path d="M0 470 C170 410, 260 520, 410 470 S670 420, 1024 490 L1024 647 L0 647 Z" fill="#0f172a" opacity="0.55"/>
  <g opacity="0.95">
    <rect x="90" y="430" width="250" height="170" rx="12" fill="url(#panel)" stroke="#e2e8f0" stroke-width="6"/>
    <g stroke="#93c5fd" stroke-width="4">
      <path d="M105 470 H325"/>
      <path d="M105 510 H325"/>
      <path d="M105 550 H325"/>
      <path d="M145 440 V600"/>
      <path d="M195 440 V600"/>
      <path d="M245 440 V600"/>
      <path d="M295 440 V600"/>
      <path d="M90 485 H340"/>
      <path d="M90 525 H340"/>
      <path d="M90 565 H340"/>
    </g>
  </g>
  <g transform="translate(540 250)" stroke="url(#wind)" stroke-width="10" fill="none" stroke-linecap="round" stroke-linejoin="round">
    <path d="M0 220 L0 65"/>
    <path d="M0 75 L-70 25"/>
    <path d="M0 75 L70 25"/>
    <path d="M0 75 L-10 -8"/>
    <path d="M160 220 L160 120"/>
    <path d="M160 132 L95 90"/>
    <path d="M160 132 L220 88"/>
    <path d="M160 132 L155 50"/>
  </g>
  <g transform="translate(724 310)" stroke="url(#wind)" stroke-width="8" fill="none" stroke-linecap="round" stroke-linejoin="round" opacity="0.9">
    <path d="M0 170 L0 90"/>
    <path d="M0 100 L-45 70"/>
    <path d="M0 100 L45 70"/>
    <path d="M0 100 L-8 30"/>
  </g>
  <path d="M610 110 L548 245 H606 L560 340 L693 200 H628 Z" fill="#ef4444" opacity="0.9"/>
  <g fill="#ffffff" opacity="0.16">
    <circle cx="110" cy="110" r="6"/><circle cx="160" cy="90" r="4"/><circle cx="230" cy="120" r="5"/>
    <circle cx="650" cy="95" r="7"/><circle cx="720" cy="120" r="4"/><circle cx="880" cy="80" r="5"/>
  </g>
  <text x="64" y="78" fill="#fff7ed" font-family="Arial, Helvetica, sans-serif" font-size="36" font-weight="700">puhas energia, vähem šokki</text>
  <text x="64" y="118" fill="#e2e8f0" font-family="Arial, Helvetica, sans-serif" font-size="20">kui fossiil kõigub, liigub üleminek kiiremini</text>
</svg>