<svg xmlns="http://www.w3.org/2000/svg" width="1024" height="647" viewBox="0 0 1024 647" role="img" aria-labelledby="title desc">
  <title id="title">Kütusehinnad kiirendavad Aafrikas elektriautode levikut</title>
  <desc id="desc">Stiilne elektrisõidukite ja energia üleminekut kujutav illustratsioon Aafrika kontekstis.</desc>
  <defs>
    <linearGradient id="bg" x1="0" y1="0" x2="1" y2="1">
      <stop offset="0%" stop-color="#0b1020"/>
      <stop offset="55%" stop-color="#12324a"/>
      <stop offset="100%" stop-color="#1f7a6e"/>
    </linearGradient>
    <linearGradient id="glow" x1="0" y1="0" x2="1" y2="1">
      <stop offset="0%" stop-color="#ffd86b"/>
      <stop offset="100%" stop-color="#ff9d4d"/>
    </linearGradient>
    <linearGradient id="road" x1="0" y1="0" x2="0" y2="1">
      <stop offset="0%" stop-color="#2dd4bf"/>
      <stop offset="100%" stop-color="#0ea5e9"/>
    </linearGradient>
    <filter id="shadow" x="-20%" y="-20%" width="140%" height="140%">
      <feDropShadow dx="0" dy="12" stdDeviation="18" flood-color="#000" flood-opacity="0.35"/>
    </filter>
  </defs>
  <rect width="1024" height="647" fill="url(#bg)"/>
  <circle cx="176" cy="140" r="72" fill="url(#glow)" opacity="0.95"/>
  <circle cx="176" cy="140" r="116" fill="#ffd86b" opacity="0.12"/>
  <path d="M122 506 C220 420, 304 386, 382 392 C420 395, 438 426, 487 430 C544 435, 580 391, 639 376 C715 357, 772 386, 852 350 C809 418, 771 463, 734 519 C687 591, 600 594, 532 559 C469 527, 410 534, 330 560 C247 587, 176 572, 122 506 Z" fill="#0b3f3a" opacity="0.85"/>
  <path d="M126 508 C226 430, 301 417, 374 425 C433 432, 463 456, 512 459 C568 463, 618 430, 682 408 C739 388, 780 397, 853 365" fill="none" stroke="#2dd4bf" stroke-width="5" stroke-linecap="round" opacity="0.35"/>
  <path d="M402 118 L470 118 L500 166 L450 186 L414 161 Z" fill="#17314e" opacity="0.95"/>
  <path d="M546 112 L622 112 L642 150 L603 182 L556 164 Z" fill="#17314e" opacity="0.95"/>
  <path d="M242 548 L792 548" stroke="url(#road)" stroke-width="18" stroke-linecap="round" opacity="0.7"/>
  <path d="M292 548 L738 548" stroke="#dbeafe" stroke-width="4" stroke-dasharray="22 20" stroke-linecap="round" opacity="0.65"/>
  <g filter="url(#shadow)">
    <rect x="585" y="334" width="292" height="136" rx="32" fill="#0f172a" stroke="#38bdf8" stroke-width="3"/>
    <path d="M630 382 C668 352, 723 338, 786 340 C824 341, 846 357, 868 388 L868 432 L630 432 Z" fill="#1f2937"/>
    <circle cx="671" cy="455" r="22" fill="#0f172a" stroke="#cbd5e1" stroke-width="9"/>
    <circle cx="807" cy="455" r="22" fill="#0f172a" stroke="#cbd5e1" stroke-width="9"/>
    <rect x="662" y="360" width="85" height="25" rx="10" fill="#38bdf8" opacity="0.9"/>
    <rect x="756" y="360" width="78" height="24" rx="10" fill="#38bdf8" opacity="0.45"/>
    <path d="M611 412 L863 412" stroke="#334155" stroke-width="6" stroke-linecap="round"/>
  </g>
  <g transform="translate(530 248)" filter="url(#shadow)">
    <rect x="0" y="0" width="66" height="168" rx="24" fill="#0f172a" stroke="#38bdf8" stroke-width="3"/>
    <rect x="15" y="18" width="36" height="98" rx="14" fill="#111827" stroke="#64748b" stroke-width="2"/>
    <rect x="24" y="130" width="18" height="34" rx="8" fill="#38bdf8"/>
    <path d="M75 46 L119 46 L98 86 L127 86 L74 154 L90 102 L61 102 Z" fill="url(#glow)"/>
  </g>
  <g opacity="0.3">
    <circle cx="928" cy="107" r="7" fill="#dbeafe"/>
    <circle cx="957" cy="145" r="4" fill="#dbeafe"/>
    <circle cx="892" cy="172" r="5" fill="#dbeafe"/>
    <circle cx="858" cy="116" r="4" fill="#dbeafe"/>
  </g>
</svg>