<svg xmlns="http://www.w3.org/2000/svg" viewBox="0 0 1200 700" role="img" aria-labelledby="title desc">
  <title id="title">Windermere'i järve uuring näitab viise kliimamõju nullimiseks</title>
  <desc id="desc">Illustratsioon järvest, taevast, vihmapilvedest ja sinivetika ohust.</desc>
  <defs>
    <linearGradient id="sky" x1="0" y1="0" x2="0" y2="1">
      <stop offset="0%" stop-color="#d9f4ff"/>
      <stop offset="100%" stop-color="#f8fcff"/>
    </linearGradient>
    <linearGradient id="hill" x1="0" y1="0" x2="0" y2="1">
      <stop offset="0%" stop-color="#8bcf7d"/>
      <stop offset="100%" stop-color="#4f8f5f"/>
    </linearGradient>
    <linearGradient id="water" x1="0" y1="0" x2="0" y2="1">
      <stop offset="0%" stop-color="#56b7d9"/>
      <stop offset="100%" stop-color="#1f7fa9"/>
    </linearGradient>
  </defs>
  <rect width="1200" height="700" fill="url(#sky)"/>
  <circle cx="930" cy="110" r="58" fill="#ffd66b" opacity="0.95"/>
  <g fill="#cfeaf5" opacity="0.95">
    <ellipse cx="210" cy="130" rx="90" ry="42"/>
    <ellipse cx="285" cy="120" rx="70" ry="35"/>
    <ellipse cx="390" cy="134" rx="102" ry="46"/>
    <ellipse cx="835" cy="180" rx="95" ry="44"/>
    <ellipse cx="920" cy="168" rx="80" ry="36"/>
  </g>
  <path d="M0 330 C170 250, 290 265, 430 320 C560 370, 690 360, 820 300 C940 245, 1060 240, 1200 305 L1200 470 L0 470 Z" fill="url(#hill)"/>
  <path d="M0 430 C170 395, 290 400, 430 435 C570 470, 680 470, 820 430 C960 390, 1060 390, 1200 430 L1200 700 L0 700 Z" fill="url(#water)"/>
  <path d="M0 470 C120 440, 250 445, 375 475 C500 505, 635 508, 760 472 C870 440, 1005 440, 1200 478" fill="none" stroke="#d6f5ff" stroke-width="12" opacity="0.75"/>
  <path d="M0 515 C120 485, 240 488, 375 520 C510 552, 625 555, 760 520 C900 486, 1015 486, 1200 520" fill="none" stroke="#b3e6f5" stroke-width="10" opacity="0.55"/>
  <g fill="#2d5f36" opacity="0.9">
    <rect x="130" y="282" width="14" height="98" rx="7"/>
    <circle cx="137" cy="265" r="36"/>
    <rect x="209" y="272" width="14" height="112" rx="7"/>
    <circle cx="216" cy="252" r="40"/>
    <rect x="1010" y="280" width="14" height="102" rx="7"/>
    <circle cx="1017" cy="258" r="38"/>
    <rect x="1087" y="292" width="14" height="90" rx="7"/>
    <circle cx="1094" cy="275" r="34"/>
  </g>
  <g fill="#ffffff" opacity="0.9">
    <path d="M842 265 h115 a28 28 0 0 1 0 56 h-115 a24 24 0 0 1 0-56z"/>
    <path d="M882 242 h104 a26 26 0 0 1 0 52 h-104 a22 22 0 0 1 0-52z"/>
  </g>
  <g stroke="#6b7280" stroke-width="10" stroke-linecap="round" opacity="0.75">
    <line x1="895" y1="315" x2="895" y2="395"/>
    <line x1="922" y1="315" x2="922" y2="395"/>
    <line x1="948" y1="315" x2="948" y2="395"/>
    <line x1="975" y1="315" x2="975" y2="395"/>
  </g>
  <g fill="#3a93b8" opacity="0.9">
    <path d="M865 355c10 18 18 29 18 42a18 18 0 0 1-36 0c0-13 8-24 18-42z"/>
    <path d="M915 350c10 18 18 29 18 42a18 18 0 0 1-36 0c0-13 8-24 18-42z"/>
    <path d="M965 356c10 18 18 29 18 42a18 18 0 0 1-36 0c0-13 8-24 18-42z"/>
  </g>
  <g fill="#0d4a6b" opacity="0.18">
    <circle cx="320" cy="565" r="38"/>
    <circle cx="440" cy="600" r="54"/>
    <circle cx="585" cy="585" r="46"/>
    <circle cx="730" cy="615" r="70"/>
    <circle cx="870" cy="590" r="42"/>
  </g>
  <text x="60" y="640" font-family="system-ui,Segoe UI,sans-serif" font-size="42" font-weight="700" fill="#ffffff" opacity="0.9">WINDERMERE</text>
</svg>